<?xml version="1.0" encoding="iso-8859-1"?>
<!-- Generator: Adobe Illustrator 19.0.0, SVG Export Plug-In . SVG Version: 6.00 Build 0)  -->
<svg version="1.1" id="Layer_1" xmlns="http://www.w3.org/2000/svg" xmlns:xlink="http://www.w3.org/1999/xlink" x="0px" y="0px"
	 viewBox="0 0 512 512" style="enable-background:new 0 0 512 512;" xml:space="preserve">
<path style="fill:#ACAAB1;" d="M422.068,92.29l-31.332-47.112c-15.604-23.462-41.914-37.561-70.091-37.561h-28.108H246.46h-53.592
	c-6.355,0-11.507,5.152-11.507,11.507v16.364c0,6.355-5.152,11.507-11.507,11.507h-24.161c-6.355,0-11.507-5.152-11.507-11.507
	v-4.888c0-5.907-4.833-10.74-10.74-10.74h-22.777c-5.907,0-10.74,4.833-10.74,10.74v72.84c0,5.907,4.833,10.74,10.74,10.74h22.777
	c5.907,0,10.74-4.833,10.74-10.74v-4.888c0-6.355,5.152-11.507,11.507-11.507h24.16c6.355,0,11.507,5.152,11.507,11.507v16.364
	c0,6.355,5.152,11.507,11.507,11.507h88.161c6.355,0,11.507-5.152,11.507-11.507V86.401c0-10.704,8.677-19.381,19.381-19.381h22.702
	c9.33,0,18.595,1.551,27.417,4.59L422.068,92.29z"/>
<g style="opacity:0.63;">
	<path style="fill:#77757E;" d="M120.799,98.248v4.888c0,5.907-4.833,10.74-10.74,10.74h13.389c5.907,0,10.74-4.833,10.74-10.74
		v-4.888c0-6.355,5.152-11.507,11.507-11.507h-13.389C125.951,86.742,120.799,91.894,120.799,98.248z"/>
</g>
<g style="opacity:0.63;">
	<path style="fill:#77757E;" d="M407.907,70.997l-56.161-19.348c-8.821-3.039-18.086-4.59-27.417-4.59h-22.702
		c-10.704,0-19.381,8.677-19.381,19.381v28.516c0,6.355-5.152,11.507-11.506,11.507h-88.161c-0.41,0-0.816-0.023-1.215-0.065v8.519
		c0,6.355,5.152,11.507,11.507,11.507h88.161c6.355,0,11.507-5.152,11.507-11.507V86.401c0-10.704,8.677-19.381,19.381-19.381
		h22.702c9.33,0,18.595,1.551,27.417,4.59l60.031,20.68L407.907,70.997z"/>
</g>
<path style="fill:#EE8700;" d="M258.562,504.384h-37.991c-15.188,0-27.324-12.639-26.709-27.815l14.213-350.146h62.982
	l14.213,350.146C285.887,491.745,273.751,504.384,258.562,504.384z"/>
<polygon style="fill:#CD2A00;" points="273.53,187.314 205.604,187.314 206.606,162.635 272.527,162.635 "/>
<path style="opacity:0.52;fill:#663A00;enable-background:new    ;" d="M285.326,476.57l-14.213-350.146h-17.014l13.496,332.479
	c0.616,15.176-11.521,27.815-26.709,27.815h-37.991c-2.719,0-5.338-0.411-7.806-1.164c3.363,10.869,13.485,18.83,25.537,18.83
	h37.991C273.805,504.384,285.942,491.745,285.326,476.57z"/>
<g style="opacity:0.52;">
	<polygon style="fill:#663A00;" points="271.058,126.423 208.076,126.423 206.917,154.975 272.217,154.975 	"/>
</g>
<path d="M428.412,88.072l-31.333-47.111C380.021,15.313,351.448,0,320.644,0H192.868c-10.545,0-19.124,8.579-19.124,19.123v16.364
	c0,2.145-1.745,3.891-3.89,3.891h-24.16c-2.145,0-3.891-1.745-3.891-3.891v-4.888c0-10.121-8.234-18.357-18.357-18.357h-22.776
	c-10.122,0-18.357,8.234-18.357,18.357v72.841c0,10.121,8.234,18.357,18.357,18.357h22.777c10.121,0,18.357-8.234,18.357-18.357
	v-4.889c0-2.145,1.745-3.89,3.891-3.89h24.16c2.145,0,3.89,1.745,3.89,3.89v16.365c0,10.545,8.579,19.123,19.124,19.123h7.276
	l-7.968,196.293c-0.191,2.373-0.294,4.823-0.299,7.354l-5.625,138.573c-0.383,9.431,3.006,18.374,9.543,25.182
	C202.335,508.25,211.133,512,220.571,512h37.992c9.439,0,18.238-3.75,24.775-10.558c6.537-6.808,9.926-15.752,9.543-25.182
	l-6.223-153.328c0-0.004,0-0.008,0-0.011l-3.253-80.126c-0.001-0.015-0.001-0.03-0.002-0.046L278.99,134.04h2.039
	c10.545,0,19.123-8.579,19.123-19.123V86.401c0-6.488,5.278-11.764,11.764-11.764h22.702c8.505,0,16.895,1.405,24.937,4.174
	l60.031,20.68c3.089,1.064,6.511,0.04,8.509-2.544C430.093,94.363,430.219,90.792,428.412,88.072z M271.338,321.108
	c-35.245,57.478-36.877,148.232-36.501,175.659h-6.608c0.822-83.611,15.03-146.272,27.007-184.508
	c4.927-15.727,9.874-28.677,14.169-38.783L271.338,321.108z M265.597,179.698h-52.061l0.384-9.447h51.294L265.597,179.698z
	 M211.947,218.845c6.763,2.758,15.43,9.22,15.43,24.236c0,11.989-6.506,22.157-14.039,33.93c-1.322,2.067-2.668,4.171-4.007,6.327
	L211.947,218.845z M201.473,476.878l5.88-144.843c1.489-19.674,10.273-33.461,18.817-46.814
	c8.455-13.214,16.441-25.695,16.441-42.14c0-25.318-16.913-36.476-30.018-40.099l0.327-8.049h53.298l1.877,46.226
	c-3.749,6.583-15.443,28.588-27.176,65.85c-12.318,39.122-26.917,103.069-27.906,188.212c-2.311-0.994-4.424-2.452-6.227-4.328
	C203.146,487.103,201.26,482.126,201.473,476.878z M272.35,490.891c-3.638,3.788-8.534,5.875-13.786,5.875h-8.459
	c-0.229-22.289,0.976-91.341,22.508-144.245l5.047,124.356C277.873,482.126,275.987,487.103,272.35,490.891z M264.596,155.018
	h-50.057l0.852-20.978h48.354L264.596,155.018z M364.518,64.408c-9.642-3.322-19.7-5.006-29.898-5.006h-22.702
	c-14.887,0-26.998,12.112-26.998,26.998v28.515c0,2.145-1.745,3.89-3.89,3.89h-9.973h-62.982h-15.207
	c-2.145,0-3.891-1.745-3.891-3.89V98.552c0-10.545-8.579-19.123-19.123-19.123h-24.16c-10.545,0-19.124,8.579-19.124,19.123v4.888
	c0,1.693-1.43,3.123-3.123,3.123h-22.776c-1.693,0-3.123-1.43-3.123-3.123v-72.84c0-1.693,1.43-3.123,3.123-3.123h22.777
	c1.693,0,3.123,1.43,3.123,3.123v4.888c0,10.545,8.579,19.124,19.124,19.124h24.16c10.545,0,19.123-8.579,19.123-19.124V19.123
	c0-2.145,1.745-3.89,3.891-3.89h127.776c25.691,0,49.523,12.771,63.749,34.163l18.858,28.355L364.518,64.408z"/>
<path d="M238.091,23.969h-24.067c-8.29,0-15.035,6.744-15.035,15.035v11.88c0,4.207,3.41,7.617,7.617,7.617s7.617-3.41,7.617-7.617
	V39.202h23.868c4.207,0,7.617-3.41,7.617-7.617S242.298,23.969,238.091,23.969z"/>
<g>
</g>
<g>
</g>
<g>
</g>
<g>
</g>
<g>
</g>
<g>
</g>
<g>
</g>
<g>
</g>
<g>
</g>
<g>
</g>
<g>
</g>
<g>
</g>
<g>
</g>
<g>
</g>
<g>
</g>
</svg>
